<mxfile host="65bd71144e">
    <diagram id="DZLdF4NMAk4b3gtWy_IA" name="第 1 页">
        <mxGraphModel dx="683" dy="558" grid="1" gridSize="10" guides="1" tooltips="1" connect="1" arrows="1" fold="1" page="1" pageScale="1" pageWidth="827" pageHeight="1169" math="0" shadow="0">
            <root>
                <mxCell id="0"/>
                <mxCell id="1" parent="0"/>
                <mxCell id="3" style="edgeStyle=none;html=1;" edge="1" parent="1" source="2" target="4">
                    <mxGeometry relative="1" as="geometry">
                        <mxPoint x="180" y="200" as="targetPoint"/>
                    </mxGeometry>
                </mxCell>
                <mxCell id="15" style="edgeStyle=none;html=1;" edge="1" parent="1" source="2">
                    <mxGeometry relative="1" as="geometry">
                        <mxPoint x="65" y="350" as="targetPoint"/>
                    </mxGeometry>
                </mxCell>
                <mxCell id="2" value="用户" style="shape=umlActor;verticalLabelPosition=bottom;verticalAlign=top;html=1;outlineConnect=0;" vertex="1" parent="1">
                    <mxGeometry x="50" y="170" width="30" height="60" as="geometry"/>
                </mxCell>
                <mxCell id="5" style="edgeStyle=none;html=1;" edge="1" parent="1" source="4" target="6">
                    <mxGeometry relative="1" as="geometry">
                        <mxPoint x="280" y="200" as="targetPoint"/>
                    </mxGeometry>
                </mxCell>
                <mxCell id="4" value="进入页面" style="text;html=1;strokeColor=none;fillColor=none;align=center;verticalAlign=middle;whiteSpace=wrap;rounded=0;" vertex="1" parent="1">
                    <mxGeometry x="150" y="185" width="60" height="30" as="geometry"/>
                </mxCell>
                <mxCell id="9" style="edgeStyle=none;html=1;entryX=0.5;entryY=0;entryDx=0;entryDy=0;" edge="1" parent="1" source="6" target="7">
                    <mxGeometry relative="1" as="geometry"/>
                </mxCell>
                <mxCell id="6" value="建立连接" style="rounded=1;whiteSpace=wrap;html=1;" vertex="1" parent="1">
                    <mxGeometry x="280" y="180" width="80" height="40" as="geometry"/>
                </mxCell>
                <mxCell id="11" style="edgeStyle=none;html=1;entryX=0.5;entryY=0;entryDx=0;entryDy=0;" edge="1" parent="1" source="7" target="10">
                    <mxGeometry relative="1" as="geometry"/>
                </mxCell>
                <mxCell id="7" value="用户登录" style="text;html=1;strokeColor=none;fillColor=none;align=center;verticalAlign=middle;whiteSpace=wrap;rounded=0;" vertex="1" parent="1">
                    <mxGeometry x="290" y="270" width="60" height="30" as="geometry"/>
                </mxCell>
                <mxCell id="13" style="edgeStyle=none;html=1;entryX=0.5;entryY=0;entryDx=0;entryDy=0;" edge="1" parent="1" source="10" target="12">
                    <mxGeometry relative="1" as="geometry"/>
                </mxCell>
                <mxCell id="10" value="获取到_id" style="rounded=1;whiteSpace=wrap;html=1;" vertex="1" parent="1">
                    <mxGeometry x="265" y="360" width="110" height="40" as="geometry"/>
                </mxCell>
                <mxCell id="12" value="用_id生成相应房间" style="text;html=1;strokeColor=none;fillColor=none;align=center;verticalAlign=middle;whiteSpace=wrap;rounded=0;" vertex="1" parent="1">
                    <mxGeometry x="245" y="430" width="150" height="30" as="geometry"/>
                </mxCell>
                <mxCell id="21" style="edgeStyle=none;html=1;entryX=0.5;entryY=0;entryDx=0;entryDy=0;" edge="1" parent="1" source="17" target="20">
                    <mxGeometry relative="1" as="geometry"/>
                </mxCell>
                <mxCell id="17" value="发送信息给指定用户" style="ellipse;whiteSpace=wrap;html=1;" vertex="1" parent="1">
                    <mxGeometry x="5" y="350" width="120" height="80" as="geometry"/>
                </mxCell>
                <mxCell id="22" style="edgeStyle=none;html=1;" edge="1" parent="1" source="20" target="23">
                    <mxGeometry relative="1" as="geometry">
                        <mxPoint x="180" y="580" as="targetPoint"/>
                    </mxGeometry>
                </mxCell>
                <mxCell id="20" value="客户端寻找相应的_id,即房间号" style="text;html=1;strokeColor=none;fillColor=none;align=center;verticalAlign=middle;whiteSpace=wrap;rounded=0;" vertex="1" parent="1">
                    <mxGeometry y="510" width="215" height="30" as="geometry"/>
                </mxCell>
                <mxCell id="24" style="edgeStyle=none;html=1;" edge="1" parent="1" source="23" target="25">
                    <mxGeometry relative="1" as="geometry">
                        <mxPoint x="230" y="650" as="targetPoint"/>
                    </mxGeometry>
                </mxCell>
                <mxCell id="26" style="edgeStyle=none;html=1;" edge="1" parent="1" source="23" target="27">
                    <mxGeometry relative="1" as="geometry">
                        <mxPoint x="330" y="577.5" as="targetPoint"/>
                    </mxGeometry>
                </mxCell>
                <mxCell id="23" value="往指点房间的用户发送内容" style="rounded=1;whiteSpace=wrap;html=1;" vertex="1" parent="1">
                    <mxGeometry x="180" y="555" width="100" height="45" as="geometry"/>
                </mxCell>
                <mxCell id="30" style="edgeStyle=none;html=1;entryX=0.5;entryY=0;entryDx=0;entryDy=0;" edge="1" parent="1" source="25" target="29">
                    <mxGeometry relative="1" as="geometry"/>
                </mxCell>
                <mxCell id="25" value="用户对接收到的任务进行筛别" style="text;html=1;strokeColor=none;fillColor=none;align=center;verticalAlign=middle;whiteSpace=wrap;rounded=0;" vertex="1" parent="1">
                    <mxGeometry x="200" y="635" width="80" height="55" as="geometry"/>
                </mxCell>
                <mxCell id="27" value="把这条发送信息存储在数据库" style="rounded=0;whiteSpace=wrap;html=1;fillColor=#6a00ff;fontColor=#ffffff;strokeColor=#3700CC;" vertex="1" parent="1">
                    <mxGeometry x="360" y="555" width="131" height="45" as="geometry"/>
                </mxCell>
                <mxCell id="31" style="edgeStyle=none;html=1;" edge="1" parent="1" source="29" target="32">
                    <mxGeometry relative="1" as="geometry">
                        <mxPoint x="140" y="760" as="targetPoint"/>
                    </mxGeometry>
                </mxCell>
                <mxCell id="34" style="edgeStyle=none;html=1;" edge="1" parent="1" source="29">
                    <mxGeometry relative="1" as="geometry">
                        <mxPoint x="340" y="760" as="targetPoint"/>
                    </mxGeometry>
                </mxCell>
                <mxCell id="29" value="" style="rhombus;whiteSpace=wrap;html=1;" vertex="1" parent="1">
                    <mxGeometry x="200" y="720" width="80" height="80" as="geometry"/>
                </mxCell>
                <mxCell id="35" style="edgeStyle=none;html=1;" edge="1" parent="1" source="32">
                    <mxGeometry relative="1" as="geometry">
                        <mxPoint x="130" y="880" as="targetPoint"/>
                    </mxGeometry>
                </mxCell>
                <mxCell id="32" value="是当前对话&amp;nbsp; 的用户" style="triangle;whiteSpace=wrap;html=1;" vertex="1" parent="1">
                    <mxGeometry x="100" y="720" width="60" height="80" as="geometry"/>
                </mxCell>
                <mxCell id="36" style="edgeStyle=none;html=1;" edge="1" parent="1" source="33">
                    <mxGeometry relative="1" as="geometry">
                        <mxPoint x="350" y="880" as="targetPoint"/>
                    </mxGeometry>
                </mxCell>
                <mxCell id="33" value="不是当前对话的用户" style="triangle;whiteSpace=wrap;html=1;direction=west;" vertex="1" parent="1">
                    <mxGeometry x="320" y="720" width="60" height="80" as="geometry"/>
                </mxCell>
                <mxCell id="37" value="直接显示在对话页面" style="rounded=1;whiteSpace=wrap;html=1;" vertex="1" parent="1">
                    <mxGeometry x="80" y="880" width="100" height="40" as="geometry"/>
                </mxCell>
                <mxCell id="39" value="显示未读信息图标,对接收到的数据进行丢弃" style="rounded=1;whiteSpace=wrap;html=1;" vertex="1" parent="1">
                    <mxGeometry x="300" y="880" width="100" height="40" as="geometry"/>
                </mxCell>
            </root>
        </mxGraphModel>
    </diagram>
    <diagram id="Lho3FWKsR8NMhR2ccUx5" name="第 2 页">
        <mxGraphModel dx="1149" dy="558" grid="1" gridSize="10" guides="1" tooltips="1" connect="1" arrows="1" fold="1" page="1" pageScale="1" pageWidth="827" pageHeight="1169" math="0" shadow="0">
            <root>
                <mxCell id="MbSCoyLvGeLM37rxLZJE-0"/>
                <mxCell id="MbSCoyLvGeLM37rxLZJE-1" parent="MbSCoyLvGeLM37rxLZJE-0"/>
                <mxCell id="MbSCoyLvGeLM37rxLZJE-4" value="发送流程" style="text;html=1;strokeColor=none;fillColor=none;align=center;verticalAlign=middle;whiteSpace=wrap;rounded=0;fontStyle=1;fontSize=23;" vertex="1" parent="MbSCoyLvGeLM37rxLZJE-1">
                    <mxGeometry x="366" y="120" width="96" height="30" as="geometry"/>
                </mxCell>
                <mxCell id="MbSCoyLvGeLM37rxLZJE-10" style="edgeStyle=none;html=1;entryX=0;entryY=0.5;entryDx=0;entryDy=0;fontSize=13;" edge="1" parent="MbSCoyLvGeLM37rxLZJE-1" source="MbSCoyLvGeLM37rxLZJE-5" target="MbSCoyLvGeLM37rxLZJE-14">
                    <mxGeometry relative="1" as="geometry"/>
                </mxCell>
                <mxCell id="MbSCoyLvGeLM37rxLZJE-5" value="用户A" style="shape=umlActor;verticalLabelPosition=bottom;verticalAlign=top;html=1;" vertex="1" parent="MbSCoyLvGeLM37rxLZJE-1">
                    <mxGeometry x="80" y="270" width="30" height="60" as="geometry"/>
                </mxCell>
                <mxCell id="MbSCoyLvGeLM37rxLZJE-55" style="edgeStyle=none;shape=connector;rounded=1;html=1;exitX=0.5;exitY=0.5;exitDx=0;exitDy=0;exitPerimeter=0;labelBackgroundColor=default;fontFamily=Helvetica;fontSize=13;fontColor=default;endArrow=classic;strokeColor=default;" edge="1" parent="MbSCoyLvGeLM37rxLZJE-1" source="MbSCoyLvGeLM37rxLZJE-7">
                    <mxGeometry relative="1" as="geometry">
                        <mxPoint x="680" y="540" as="targetPoint"/>
                    </mxGeometry>
                </mxCell>
                <mxCell id="MbSCoyLvGeLM37rxLZJE-7" value="用户B" style="shape=umlActor;verticalLabelPosition=bottom;verticalAlign=top;html=1;" vertex="1" parent="MbSCoyLvGeLM37rxLZJE-1">
                    <mxGeometry x="630" y="510" width="30" height="60" as="geometry"/>
                </mxCell>
                <mxCell id="MbSCoyLvGeLM37rxLZJE-8" value="房间A:_id of 用户B" style="rounded=1;whiteSpace=wrap;html=1;fontSize=13;" vertex="1" parent="MbSCoyLvGeLM37rxLZJE-1">
                    <mxGeometry x="200" y="190" width="70" height="40" as="geometry"/>
                </mxCell>
                <mxCell id="MbSCoyLvGeLM37rxLZJE-51" style="edgeStyle=none;shape=connector;rounded=1;html=1;entryX=0.43;entryY=-0.094;entryDx=0;entryDy=0;entryPerimeter=0;labelBackgroundColor=default;fontFamily=Helvetica;fontSize=13;fontColor=default;endArrow=classic;strokeColor=default;" edge="1" parent="MbSCoyLvGeLM37rxLZJE-1" source="MbSCoyLvGeLM37rxLZJE-9" target="MbSCoyLvGeLM37rxLZJE-48">
                    <mxGeometry relative="1" as="geometry"/>
                </mxCell>
                <mxCell id="MbSCoyLvGeLM37rxLZJE-9" value="房间B:_id of用户B" style="rounded=1;whiteSpace=wrap;html=1;fontSize=13;" vertex="1" parent="MbSCoyLvGeLM37rxLZJE-1">
                    <mxGeometry x="470" y="190" width="70" height="40" as="geometry"/>
                </mxCell>
                <mxCell id="MbSCoyLvGeLM37rxLZJE-23" value="" style="edgeStyle=none;html=1;fontSize=13;" edge="1" parent="MbSCoyLvGeLM37rxLZJE-1" source="MbSCoyLvGeLM37rxLZJE-12" target="MbSCoyLvGeLM37rxLZJE-22">
                    <mxGeometry relative="1" as="geometry"/>
                </mxCell>
                <mxCell id="MbSCoyLvGeLM37rxLZJE-12" value="服务器" style="ellipse;fontSize=13;" vertex="1" parent="MbSCoyLvGeLM37rxLZJE-1">
                    <mxGeometry x="200" y="510" width="130" height="30" as="geometry"/>
                </mxCell>
                <mxCell id="MbSCoyLvGeLM37rxLZJE-19" style="edgeStyle=none;html=1;entryX=0.5;entryY=0;entryDx=0;entryDy=0;fontSize=13;" edge="1" parent="MbSCoyLvGeLM37rxLZJE-1" source="MbSCoyLvGeLM37rxLZJE-14" target="MbSCoyLvGeLM37rxLZJE-12">
                    <mxGeometry relative="1" as="geometry"/>
                </mxCell>
                <mxCell id="MbSCoyLvGeLM37rxLZJE-14" value="send:用户A;&lt;br&gt;accept:用户B;&lt;br&gt;context:message" style="ellipse;whiteSpace=wrap;html=1;fontSize=13;rounded=1;" vertex="1" parent="MbSCoyLvGeLM37rxLZJE-1">
                    <mxGeometry x="210" y="290" width="120" height="60" as="geometry"/>
                </mxCell>
                <mxCell id="MbSCoyLvGeLM37rxLZJE-26" style="edgeStyle=none;html=1;entryX=0.5;entryY=1;entryDx=0;entryDy=0;fontSize=13;" edge="1" parent="MbSCoyLvGeLM37rxLZJE-1" source="MbSCoyLvGeLM37rxLZJE-22" target="MbSCoyLvGeLM37rxLZJE-25">
                    <mxGeometry relative="1" as="geometry"/>
                </mxCell>
                <mxCell id="MbSCoyLvGeLM37rxLZJE-22" value="数据库" style="ellipse;whiteSpace=wrap;html=1;fontSize=13;" vertex="1" parent="MbSCoyLvGeLM37rxLZJE-1">
                    <mxGeometry x="390" y="495" width="120" height="60" as="geometry"/>
                </mxCell>
                <mxCell id="MbSCoyLvGeLM37rxLZJE-27" style="edgeStyle=none;html=1;fontSize=13;" edge="1" parent="MbSCoyLvGeLM37rxLZJE-1" source="MbSCoyLvGeLM37rxLZJE-25" target="MbSCoyLvGeLM37rxLZJE-28">
                    <mxGeometry relative="1" as="geometry">
                        <mxPoint x="600" y="480" as="targetPoint"/>
                    </mxGeometry>
                </mxCell>
                <mxCell id="MbSCoyLvGeLM37rxLZJE-30" style="edgeStyle=none;html=1;entryX=0.399;entryY=1.078;entryDx=0;entryDy=0;entryPerimeter=0;fontSize=13;" edge="1" parent="MbSCoyLvGeLM37rxLZJE-1" source="MbSCoyLvGeLM37rxLZJE-25" target="MbSCoyLvGeLM37rxLZJE-9">
                    <mxGeometry relative="1" as="geometry"/>
                </mxCell>
                <mxCell id="MbSCoyLvGeLM37rxLZJE-25" value="send:_id;&lt;br&gt;accept:_id" style="text;html=1;strokeColor=none;fillColor=none;align=center;verticalAlign=middle;whiteSpace=wrap;rounded=0;fontSize=13;" vertex="1" parent="MbSCoyLvGeLM37rxLZJE-1">
                    <mxGeometry x="430" y="320" width="60" height="30" as="geometry"/>
                </mxCell>
                <mxCell id="MbSCoyLvGeLM37rxLZJE-29" style="edgeStyle=none;html=1;entryX=1;entryY=0.5;entryDx=0;entryDy=0;fontSize=13;" edge="1" parent="MbSCoyLvGeLM37rxLZJE-1" source="MbSCoyLvGeLM37rxLZJE-28" target="MbSCoyLvGeLM37rxLZJE-22">
                    <mxGeometry relative="1" as="geometry">
                        <Array as="points">
                            <mxPoint x="550" y="480"/>
                        </Array>
                    </mxGeometry>
                </mxCell>
                <mxCell id="MbSCoyLvGeLM37rxLZJE-28" value="存储" style="text;html=1;strokeColor=none;fillColor=none;align=center;verticalAlign=middle;whiteSpace=wrap;rounded=0;fontSize=13;" vertex="1" parent="MbSCoyLvGeLM37rxLZJE-1">
                    <mxGeometry x="480" y="410" width="60" height="30" as="geometry"/>
                </mxCell>
                <mxCell id="MbSCoyLvGeLM37rxLZJE-40" style="edgeStyle=none;html=1;fontSize=13;entryX=0.487;entryY=1.203;entryDx=0;entryDy=0;entryPerimeter=0;" edge="1" parent="MbSCoyLvGeLM37rxLZJE-1">
                    <mxGeometry relative="1" as="geometry">
                        <mxPoint x="745.06" y="200.80999999999995" as="targetPoint"/>
                        <mxPoint x="689.9984679665738" y="399.9984679665738" as="sourcePoint"/>
                    </mxGeometry>
                </mxCell>
                <mxCell id="MbSCoyLvGeLM37rxLZJE-49" value="n" style="edgeLabel;html=1;align=center;verticalAlign=middle;resizable=0;points=[];fontSize=13;" vertex="1" connectable="0" parent="MbSCoyLvGeLM37rxLZJE-40">
                    <mxGeometry x="-0.2158" y="-3" relative="1" as="geometry">
                        <mxPoint as="offset"/>
                    </mxGeometry>
                </mxCell>
                <mxCell id="MbSCoyLvGeLM37rxLZJE-41" style="edgeStyle=none;html=1;fontSize=13;" edge="1" parent="MbSCoyLvGeLM37rxLZJE-1" source="MbSCoyLvGeLM37rxLZJE-34">
                    <mxGeometry relative="1" as="geometry">
                        <mxPoint x="720" y="490" as="targetPoint"/>
                        <Array as="points"/>
                    </mxGeometry>
                </mxCell>
                <mxCell id="MbSCoyLvGeLM37rxLZJE-50" value="y" style="edgeLabel;html=1;align=center;verticalAlign=middle;resizable=0;points=[];fontSize=13;fontFamily=Helvetica;fontColor=default;" vertex="1" connectable="0" parent="MbSCoyLvGeLM37rxLZJE-41">
                    <mxGeometry x="-0.2847" y="-1" relative="1" as="geometry">
                        <mxPoint y="-1" as="offset"/>
                    </mxGeometry>
                </mxCell>
                <mxCell id="MbSCoyLvGeLM37rxLZJE-34" value="" style="rhombus;fontSize=13;" vertex="1" parent="MbSCoyLvGeLM37rxLZJE-1">
                    <mxGeometry x="670" y="400" width="30" height="30" as="geometry"/>
                </mxCell>
                <mxCell id="MbSCoyLvGeLM37rxLZJE-53" style="edgeStyle=none;shape=connector;rounded=1;html=1;entryX=0;entryY=0.5;entryDx=0;entryDy=0;labelBackgroundColor=default;fontFamily=Helvetica;fontSize=13;fontColor=default;endArrow=classic;strokeColor=default;" edge="1" parent="MbSCoyLvGeLM37rxLZJE-1" source="MbSCoyLvGeLM37rxLZJE-45" target="MbSCoyLvGeLM37rxLZJE-34">
                    <mxGeometry relative="1" as="geometry"/>
                </mxCell>
                <mxCell id="MbSCoyLvGeLM37rxLZJE-45" value="当前的accept人是不是发送的用户" style="text;html=1;strokeColor=none;fillColor=none;align=center;verticalAlign=middle;whiteSpace=wrap;rounded=0;fontSize=13;" vertex="1" parent="MbSCoyLvGeLM37rxLZJE-1">
                    <mxGeometry x="590" y="320" width="60" height="30" as="geometry"/>
                </mxCell>
                <mxCell id="MbSCoyLvGeLM37rxLZJE-47" value="显示对应的未读红点" style="text;html=1;align=center;verticalAlign=middle;resizable=0;points=[];autosize=1;strokeColor=none;fillColor=none;fontSize=13;" vertex="1" parent="MbSCoyLvGeLM37rxLZJE-1">
                    <mxGeometry x="680" y="180" width="130" height="20" as="geometry"/>
                </mxCell>
                <mxCell id="MbSCoyLvGeLM37rxLZJE-52" style="edgeStyle=none;shape=connector;rounded=1;html=1;entryX=0.25;entryY=0;entryDx=0;entryDy=0;labelBackgroundColor=default;fontFamily=Helvetica;fontSize=13;fontColor=default;endArrow=classic;strokeColor=default;" edge="1" parent="MbSCoyLvGeLM37rxLZJE-1" source="MbSCoyLvGeLM37rxLZJE-48" target="MbSCoyLvGeLM37rxLZJE-45">
                    <mxGeometry relative="1" as="geometry"/>
                </mxCell>
                <mxCell id="MbSCoyLvGeLM37rxLZJE-48" value="context表" style="whiteSpace=wrap;html=1;fontSize=13;" vertex="1" parent="MbSCoyLvGeLM37rxLZJE-1">
                    <mxGeometry x="540" y="260" width="90" height="20" as="geometry"/>
                </mxCell>
                <mxCell id="MbSCoyLvGeLM37rxLZJE-56" value="刷新路由数据" style="ellipse;whiteSpace=wrap;html=1;fontFamily=Helvetica;fontSize=13;fontColor=default;" vertex="1" parent="MbSCoyLvGeLM37rxLZJE-1">
                    <mxGeometry x="680" y="490" width="120" height="60" as="geometry"/>
                </mxCell>
            </root>
        </mxGraphModel>
    </diagram>
</mxfile>